<svg xmlns="http://www.w3.org/2000/svg" viewBox="0 0 851 851"><defs><style>.cls-1{fill:#63c99f;}</style></defs><g id="square"><rect class="cls-1" width="851" height="851" rx="115.2"/></g><g id="Layer_1" data-name="Layer 1"><path d="M864.67,721.22l-32.89,24L880.67,819H787.33l-17.78-25.34c-72.45,56.9-181.79,23.56-168.45-74.22,5.33-38.22,26.22-61.34,58.22-79.12-46.22-56.89,12.89-140.45,89.79-138.23,44,1.33,80.89,32.44,73.78,81.78-4.89,36-24,56.9-48.45,72.45l21.78,32.45,32-24.44ZM698.44,695c-20.89,10.22-26.23,32-18.23,45.34,8.89,15.56,33.78,16.44,50.67,0Zm16.89-109.78c-1.34,8,5.33,17.33,12.44,27.56,15.12-9.34,24-17.34,25.78-28.9,1.34-10.22-4.89-19.11-14.67-19.11C727.77,564.76,716.66,573.65,715.33,585.21Z" transform="translate(-290 -227)"/><path d="M1007.44,659.55,987.1,819H906.65L927,659.55h-84.9l10.67-72.89H1103l-10.67,72.89Z" transform="translate(-290 -227)"/><path d="M376.66,665.6c-.3-1.19-.62-2.39-.92-3.6-6-24.08-12-48.18-18.15-72.22-.77-3,.06-4.26,2.65-5.53a622.54,622.54,0,0,1,70.11-28.74c3.7-1.29,7.38-2.68,11.09-3.94a26.56,26.56,0,0,1,3.38-.71c.35,1,.66,1.8.86,2.58q10.85,42.46,21.67,85,.78,3,1.3,6.12a22.27,22.27,0,0,1-17.34,25.68,16.42,16.42,0,0,1-16.91-5.64c-4.33-5-4.4-10.76-1.84-16.64,3.8-8.7,11-12.79,19.88-14.58,1-.21,2.06-.31,3.62-.55l-13.87-54.11c-6.51,2.79-13.1,5.58-19.67,8.42-15.75,6.8-31.46,13.7-47.26,20.38-2.6,1.1-3.1,2.22-2.42,4.89,5.47,21.47,10.93,42.94,16.07,64.48a22,22,0,0,1-16.85,26.55,16.5,16.5,0,0,1-17.22-5.68c-4.32-5.07-4.28-10.78-1.74-16.65,3-7,8.52-11.12,15.57-13.4C371.08,666.89,373.57,666.39,376.66,665.6Z" transform="translate(-290 -227)"/><path d="M437.08,447.72a4.55,4.55,0,0,1,2.31.31c1.14.51,1.61,1.37,1.61,3.14,0,18.76.16,37.51.27,56.26v2.81c2.4,0,4.33-.1,6.24,0,5.58.35,10.38,2.34,13.9,6.88,3.16,4.08,4.2,8.54,1.38,13.41a13.33,13.33,0,0,1-11.55,6.5,16.57,16.57,0,0,1-16.83-16.27c-.28-16.73-.31-33.47-.33-50.21V450.22a2.43,2.43,0,0,1,2.17-2.41Z" transform="translate(-290 -227)"/><path d="M536.38,385.73a4.61,4.61,0,0,0-2.33-.12c-1.21.29-1.83,1.05-2.16,2.79-3.46,18.44-7.07,36.84-10.64,55.25-.18.92-.35,1.85-.52,2.76-2.36-.45-4.24-.9-6.14-1.13-5.55-.7-10.64.38-14.93,4.2-3.85,3.42-5.7,7.61-3.83,12.91A13.32,13.32,0,0,0,506,470.92,16.57,16.57,0,0,0,525.52,458c3.37-16.4,6.48-32.84,9.6-49.28l3.75-20a2.42,2.42,0,0,0-1.69-2.77Z" transform="translate(-290 -227)"/><path d="M474,505.1l-10.22,72h71.56l-2.59,18.51A14.91,14.91,0,0,1,537,595c8.28,0,14,7.78,13,16-1,8-4.72,14-13,14a15,15,0,0,1-8-2.34l-1.21,8.71A15,15,0,0,1,534,630c8.28,0,13,8,11,16s-4.72,14-13,14c-3.72,0-5.12-1.36-7.74-3.6l-1.38,9.92A14.9,14.9,0,0,1,529,665c8.28,0,11,7.72,11,16s-5,14-11,14a14.94,14.94,0,0,1-9.64-3.51l-3.58,25.63c-2.67,18.67-23.56,30.22-43.56,30.22-19.11,0-37.78-10.66-38.67-35.55l-77.34,15.55c-.89,66.67,51.12,96.9,105.34,96.9,63.57,0,123.12-38.67,132.9-107.12l29.78-212Z" transform="translate(-290 -227)"/><polygon points="145 494 149 484 147 470 56 488 57 502 66 510 145 494"/><path d="M1057.08,569a50.71,50.71,0,0,0,9.92-29.66c0-35.3-39-63.91-87-63.91S893,504,893,539.34A50.71,50.71,0,0,0,902.92,569Z" transform="translate(-290 -227)"/></g></svg>